<svg width="808" height="126" viewBox="0 0 808 126" fill="none" xmlns="http://www.w3.org/2000/svg">
<path d="M5.88344 124.044H26.4078L33.81 124.207C37.5111 124.207 40.8758 122.903 40.8758 119.317C40.8758 117.035 39.3617 115.242 35.1559 114.101C27.7536 111.982 26.4078 109.374 26.576 103.506V68.7866C26.576 65.6895 28.4266 65.3635 30.1089 65.3635C38.857 65.3635 46.4274 72.6986 52.1473 72.6986C53.325 72.6986 54.5026 71.8836 55.512 70.7426C57.8672 68.1345 59.5496 63.2445 59.5496 59.3325C59.5496 55.7464 57.699 54.9314 55.1755 54.9314H30.6136C27.0807 54.9314 26.4078 53.9534 26.4078 51.9974V23.7982C26.4078 14.9961 29.6042 11.5731 37.8476 11.4101C45.5863 11.2471 49.9603 12.8771 56.0167 19.0712C63.2507 26.4062 66.4471 29.5032 69.307 29.5032C70.9894 29.5032 72.6717 28.3622 72.6717 26.0802C72.6717 22.0052 70.8211 11.5731 68.8023 6.52006C67.6247 3.42303 65.2695 1.79301 60.8954 1.79301H5.88344C3.02349 1.63001 0.5 3.09702 0.5 6.35705C0.5 8.63908 1.50939 10.2691 4.87404 11.4101C10.4257 13.3661 11.4351 15.8111 11.4351 21.5162V104.321C11.4351 110.026 10.5939 112.471 4.87404 114.427C1.67763 115.405 0.5 117.035 0.5 119.317C0.5 122.74 3.02349 124.044 5.88344 124.044Z" fill="white"/>
<path d="M104.826 125.837C125.519 125.837 140.155 104.973 140.155 73.8396C140.155 43.6844 124.678 23.1462 104.995 23.1462C84.1338 23.1462 69.3294 43.6843 69.3294 74.3286C69.3294 105.136 85.1432 125.837 104.826 125.837ZM84.8067 67.9716C84.8067 46.4554 92.8819 34.2303 102.976 34.2303C115.089 34.2303 124.678 53.6274 124.678 78.2406C124.678 102.202 116.771 114.753 106.845 114.753C94.5642 114.753 84.8067 94.2148 84.8067 67.9716Z" fill="white"/>
<path d="M171.39 126C178.624 126 185.858 121.762 189.727 117.687C191.073 116.057 192.419 116.383 192.924 118.176C194.438 123.066 195.447 124.044 198.812 124.044H211.934C214.626 124.044 216.981 122.74 216.981 119.969C216.981 117.85 215.971 116.546 212.439 115.242C209.074 113.775 208.233 111.493 208.233 105.788L208.401 29.9922C208.401 26.7322 206.719 25.1022 203.354 25.1022H188.213C184.512 24.9392 181.82 26.2432 181.82 29.0142C181.82 31.1332 182.83 32.4373 186.699 33.5783C192.419 35.3713 193.597 37.8163 193.597 43.3583V94.5408C193.597 105.788 182.998 114.59 174.418 114.59C168.193 114.59 164.492 109.7 164.492 102.854V31.2963C164.492 26.7322 163.315 25.1022 158.436 25.1022H145.314C142.454 24.9392 140.267 26.2432 140.267 29.1772C140.267 31.1332 141.108 32.4373 144.304 33.5783C148.847 35.3713 149.688 37.8163 149.688 43.3583V105.299C149.688 117.524 158.772 126 171.39 126Z" fill="white"/>
<path d="M228.969 124.044H252.185C255.549 124.044 258.578 122.74 258.578 119.969C258.578 117.85 257.232 116.546 252.858 115.242C248.652 113.775 247.474 111.493 247.643 105.951V50.8564C247.643 43.1953 252.017 36.6753 256.727 36.6753C259.082 36.6753 260.596 37.9793 262.615 42.0543C263.961 44.6624 265.139 45.8034 266.821 45.8034C271.532 45.8034 272.541 38.1423 272.541 33.5783C272.541 26.8952 269.849 23.6352 264.466 23.6352C259.923 23.6352 254.876 25.9172 249.83 31.9483C248.82 33.2523 247.811 33.2523 247.306 31.7853L246.465 29.0142C245.624 26.2432 244.614 25.1022 242.427 25.1022H228.296C225.436 24.9392 223.249 26.2432 223.249 29.1772C223.249 31.1332 224.09 32.4373 227.286 33.5783C231.829 35.3713 232.67 37.8163 232.67 43.3583V105.788C232.67 111.493 231.829 113.775 228.464 115.242C224.931 116.546 223.922 117.85 223.922 119.969C223.922 122.74 226.277 124.044 228.969 124.044Z" fill="white"/>
<path d="M340.445 125.674C359.96 125.674 375.437 111.167 375.437 92.5847C375.437 76.1216 366.185 64.0595 342.8 53.3014C326.482 45.8034 320.425 38.9573 320.425 27.7102C320.425 18.7452 326.986 10.4321 337.08 10.4321C346.165 10.4321 353.567 16.1371 361.474 29.1772C362.315 30.8072 363.325 31.7853 364.839 31.7853C366.185 31.7853 367.53 30.6442 368.708 28.8512C373.082 21.8422 373.082 17.7671 369.044 12.7141C362.147 4.89004 350.875 0 339.772 0C321.266 0 305.957 13.6921 305.957 30.9702C305.957 47.2704 314.874 57.5395 336.744 67.3195C354.072 75.1436 360.969 83.4567 360.969 96.0078C360.969 106.603 353.231 115.242 342.464 115.242C332.202 115.242 322.108 107.744 316.388 95.6818C315.21 93.2368 313.864 91.7697 312.014 91.7697C310.5 91.7697 308.817 93.5628 307.64 95.6818C303.77 101.224 303.77 106.114 307.64 111.167C314.201 119.643 327.491 125.674 340.445 125.674Z" fill="white"/>
<path d="M418.971 125.511C434.617 125.511 443.533 115.079 447.907 97.4748C449.085 92.7477 448.076 90.7917 443.533 89.9767C439.832 89.3247 438.823 89.9767 437.813 93.3997C434.281 104.647 428.897 111.982 420.317 111.982C412.41 111.982 405.176 104.973 401.475 93.8888C400.971 92.2587 400.802 91.1177 400.802 89.9767C400.802 88.8357 401.812 87.6947 403.494 86.3907C407.195 83.4567 413.251 81.1747 417.626 79.8706C421.831 78.5666 429.065 77.9146 435.122 77.7516C444.543 77.4256 449.758 71.7206 449.758 61.7775C449.758 40.5873 436.299 23.1462 418.803 23.1462C398.111 23.1462 381.96 45.6404 382.633 74.3286C383.306 104.321 398.615 125.511 418.971 125.511ZM396.933 70.5796C396.933 49.2264 405.345 33.5783 416.616 33.5783C426.205 33.5783 434.785 46.6184 434.785 60.7995C434.785 63.8965 433.271 65.3635 428.561 66.0155C418.13 67.3195 408.541 70.5796 401.643 76.2846C400.298 77.2626 399.625 77.5886 399.12 77.5886C397.438 77.5886 396.933 73.8396 396.933 70.5796Z" fill="white"/>
<path d="M484.31 125.185C491.039 125.185 498.273 122.251 504.498 116.872C506.012 115.568 507.021 115.731 508.031 117.198C510.722 121.762 516.442 124.533 522.499 124.533C527.546 124.533 530.069 122.414 530.069 119.643C530.069 118.176 529.228 116.872 527.546 115.894C521.994 112.634 519.639 108.07 518.293 97.3118L513.078 53.3014C510.722 33.4153 501.974 23.6352 484.142 23.6352C477.412 23.6352 468.833 25.2652 462.271 27.7102C454.869 30.4812 454.701 34.0673 459.243 42.8693C460.421 44.9884 461.935 45.3144 464.29 43.3583C470.515 38.4683 477.412 34.7193 483.973 34.7193C492.385 34.7193 497.264 41.7283 497.432 54.4424C497.432 55.5834 496.927 56.3985 495.75 56.3985C493.563 56.3985 490.03 55.2574 484.31 55.2574C467.655 55.2574 456.047 69.7646 456.047 90.3027C456.047 111.982 467.655 125.185 484.31 125.185ZM471.524 87.6947C471.524 74.0026 477.244 66.0155 490.366 66.0155C497.937 66.0155 499.787 67.8085 500.797 75.9586L503.488 99.2678C504.498 108.233 497.937 114.427 487.675 114.264C477.749 114.101 471.524 103.832 471.524 87.6947Z" fill="white"/>
<path d="M559.903 126C575.885 126 588.502 113.938 588.502 98.6158C588.502 83.7827 581.773 74.4916 564.445 65.2005C551.323 58.1915 545.771 52.9754 545.771 44.8254C545.771 38.4683 551.155 33.7413 557.884 33.7413C564.445 33.7413 568.819 37.1643 573.698 44.0104C577.399 48.9004 578.408 50.2044 579.754 50.2044C581.268 50.2044 581.941 49.5524 583.624 46.6184C587.156 40.2613 587.829 35.5343 583.96 31.7853C579.081 27.0582 569.156 23.3092 560.239 23.3092C544.089 23.3092 532.481 35.0453 532.481 48.9004C532.481 60.7995 539.378 68.9496 554.856 77.2626C569.492 85.0867 575.044 91.7697 575.044 102.039C575.044 109.7 569.492 115.731 561.922 115.731C554.351 115.731 548.295 110.841 543.248 102.202C541.397 99.2678 540.051 97.1488 538.201 97.1488C537.191 97.1488 536.182 97.6378 535.004 99.1048C529.621 106.277 529.116 112.797 534.836 118.013C539.883 122.74 550.145 126 559.903 126Z" fill="white"/>
<path d="M630.06 125.837C650.752 125.837 665.388 104.973 665.388 73.8396C665.388 43.6844 649.911 23.1462 630.228 23.1462C609.367 23.1462 594.563 43.6843 594.563 74.3286C594.563 105.136 610.376 125.837 630.06 125.837ZM610.04 67.9716C610.04 46.4554 618.115 34.2303 628.209 34.2303C640.322 34.2303 649.911 53.6274 649.911 78.2406C649.911 102.202 642.004 114.753 632.078 114.753C619.797 114.753 610.04 94.2148 610.04 67.9716Z" fill="white"/>
<path d="M671.893 124.044H694.436C697.128 124.044 699.651 122.74 699.651 119.969C699.651 117.85 698.474 116.546 694.941 115.079C691.576 113.775 690.735 111.493 690.735 105.788V52.1604C690.735 41.8913 697.128 35.0453 707.726 35.0453C717.989 35.0453 721.858 42.7063 721.858 52.1604L721.69 105.625C721.858 111.33 720.849 113.612 717.316 115.079C713.615 116.546 712.437 117.85 712.437 119.969C712.437 122.74 715.129 124.044 717.82 124.044H740.7C743.392 124.044 745.747 122.74 745.747 119.969C745.747 117.85 744.738 116.546 741.205 115.242C737.84 113.775 736.999 111.493 736.999 105.788V50.3674C736.999 33.2523 728.083 23.3092 711.932 23.3092C704.866 23.3092 697.969 26.5692 693.931 31.6223C692.922 32.9263 691.576 32.9263 691.071 30.9702C690.062 26.2432 688.38 25.1022 685.352 25.1022H671.22C668.36 24.9392 666.173 26.2432 666.173 29.1772C666.173 31.1332 667.014 32.4373 670.211 33.5783C674.753 35.3713 675.594 37.8163 675.594 43.3583V105.788C675.594 111.493 674.753 113.775 671.388 115.242C667.855 116.546 666.846 117.85 666.846 119.969C666.846 122.74 669.201 124.044 671.893 124.044Z" fill="white"/>
<path d="M778.901 126C794.883 126 807.5 113.938 807.5 98.6158C807.5 83.7827 800.771 74.4916 783.443 65.2005C770.321 58.1915 764.769 52.9754 764.769 44.8254C764.769 38.4683 770.153 33.7413 776.882 33.7413C783.443 33.7413 787.817 37.1643 792.696 44.0104C796.397 48.9004 797.406 50.2044 798.752 50.2044C800.266 50.2044 800.939 49.5524 802.621 46.6184C806.154 40.2613 806.827 35.5343 802.958 31.7853C798.079 27.0582 788.153 23.3092 779.237 23.3092C763.087 23.3092 751.479 35.0453 751.479 48.9004C751.479 60.7995 758.376 68.9496 773.854 77.2626C788.49 85.0867 794.041 91.7697 794.041 102.039C794.041 109.7 788.49 115.731 780.919 115.731C773.349 115.731 767.293 110.841 762.246 102.202C760.395 99.2678 759.049 97.1488 757.199 97.1488C756.189 97.1488 755.18 97.6378 754.002 99.1048C748.619 106.277 748.114 112.797 753.834 118.013C758.881 122.74 769.143 126 778.901 126Z" fill="white"/>
</svg>
