<svg width="29" height="48" viewBox="0 0 29 48" fill="none" xmlns="http://www.w3.org/2000/svg">
<path d="M28.5045 1.99143C28.4704 2.09704 28.4312 2.24184 27.8674 2.28613C27.312 2.33213 27.048 2.24184 26.9151 2.28613C26.7873 2.33553 26.726 2.42071 26.8384 2.43945C26.9526 2.45478 27.1212 2.43945 27.2132 2.46841C27.3052 2.50248 27.5795 2.54506 27.7174 2.56891C27.852 2.59106 27.9662 2.59106 28.0122 2.6592C28.0564 2.72734 28.0752 2.804 27.9798 2.86703C27.8895 2.92665 27.9593 2.89258 27.8878 2.94709C27.8197 3.00331 27.7226 3.02545 27.5369 3.07145C27.3631 3.11063 27.312 3.09189 27.1877 3.11744C27.0667 3.13618 27.0854 3.11233 26.9679 3.12937C26.8538 3.15151 26.8265 3.1447 26.6953 3.16344C26.5982 3.17877 26.496 3.1941 26.4092 3.1941C26.3223 3.1941 26.2201 3.24861 26.1332 3.23328C26.0395 3.21965 26.0122 3.21795 25.9049 3.25713C25.7993 3.2929 25.6426 3.2929 25.5404 3.34912C25.3939 3.42748 25.3888 3.61827 25.3411 3.74603C25.2968 3.8755 25.2644 3.98623 25.2508 4.04585C25.2388 4.10377 25.1894 4.25538 25.1809 4.35589C25.1741 4.45469 25.0855 4.5586 25.06 4.64719C25.0412 4.74258 25.014 4.93338 24.9782 5.06966C24.939 5.20423 24.8964 5.51257 24.8113 5.84475C24.7295 6.18204 24.6256 6.63517 24.5813 6.9401C24.537 7.24673 24.5455 7.36938 24.5609 7.58232C24.5779 7.79185 24.6154 8.02353 24.6273 8.12063C24.6443 8.21773 24.6597 8.44089 24.6886 8.60272C24.7227 8.76114 24.7789 9.07289 24.7959 9.2245C24.8113 9.38122 24.8658 9.59245 24.8999 9.67763C24.939 9.7594 24.9458 9.94167 24.9884 10.0234C25.0242 10.1086 25.1281 10.7338 25.2474 11.2125C25.3462 11.6196 25.3734 11.7849 25.4194 11.9705C25.4654 12.1613 25.479 12.3692 25.6051 12.7252C25.7226 13.0778 25.6324 12.8615 25.6715 13.0489C25.7107 13.2414 25.7516 13.3146 25.801 13.4645C25.847 13.6059 25.847 13.8052 25.9288 14.1033C26.0122 14.4014 26.0327 14.628 26.0889 14.9772C26.1502 15.3281 26.2218 15.7114 26.3052 16.0368C26.3836 16.369 26.4143 16.478 26.4722 17.1986C26.525 17.9124 26.5403 18.2531 26.5165 18.7863C26.4875 19.3195 26.4569 19.3212 26.4722 19.5511C26.4875 19.7845 26.5011 19.8356 26.4381 20.1422C26.3802 20.4438 26.3938 20.3535 26.3257 20.7265C26.2558 21.1013 26.1673 21.1916 26.1383 21.2972C26.1059 21.4011 26.0582 21.597 26.0003 21.7572C25.939 21.9105 25.8623 21.9701 25.8249 22.0587C25.7857 22.1507 25.8163 22.2529 25.6954 22.4164C25.5727 22.5851 25.5472 22.5152 25.4501 22.7282C25.353 22.9445 25.3581 22.9564 25.2661 23.0723C25.1758 23.1864 25.1247 23.3176 25.0923 23.4147C25.06 23.5135 25.031 23.4317 24.8947 23.5867C24.7568 23.7469 24.7499 23.7571 24.6256 23.9291C24.5063 24.108 24.4672 24.2 24.3735 24.3192C24.2849 24.4436 24.2338 24.464 24.1656 24.6344C24.0958 24.815 24.0719 24.815 23.9902 24.9035C23.9033 24.9955 23.9033 25.0415 23.8743 25.1642C23.842 25.2868 23.7824 25.2783 23.6376 25.5117C23.4928 25.7502 23.4042 25.8933 23.2338 26.1795C23.0652 26.4691 23.0652 26.435 22.8454 26.7382C22.6257 27.0397 22.4536 27.2918 22.1248 27.6002C21.7995 27.9 21.6445 28.0772 21.2271 28.3651C20.808 28.6512 20.423 28.917 19.8183 29.2321C19.2187 29.5422 19.1284 29.5592 18.9342 29.6393C18.7468 29.7125 18.6463 29.7125 18.5782 29.842C18.51 29.9715 18.585 29.9783 18.4879 30.2014C18.3891 30.4212 18.4231 30.3394 18.1778 30.658C17.924 30.9765 17.6821 31.3121 17.3125 31.7022C16.9513 32.0906 16.8372 32.2201 16.6157 32.4603C16.3943 32.7056 16.2239 32.881 16.1881 33.0037C16.1438 33.1229 16.1302 33.3137 16.1438 33.6749C16.1575 34.0292 16.1302 34.346 16.12 34.4483C16.1081 34.5573 16.057 34.6902 16.0672 34.7583C16.0723 34.8298 16.0723 34.9406 16.0519 34.99C16.0297 35.036 16.0144 35.2404 16.0144 35.3C16.0144 35.363 15.9735 35.4516 15.9548 35.5538C15.9275 35.6509 15.89 35.6918 15.8287 35.7668C15.7691 35.8383 15.7776 35.8945 15.7776 36.0001C15.7776 36.1058 15.7146 36.1807 15.7146 36.3153C15.7146 36.4499 15.7078 36.61 15.7299 37.0274C15.7555 37.4481 15.7691 37.7462 15.7861 37.8978C15.798 38.0495 15.7861 38.184 15.7861 38.2914C15.7861 38.3987 15.798 38.6968 15.936 39.2947C16.0723 39.8944 16.0416 39.8892 16.1728 40.4787C16.2989 41.063 16.4931 42.005 16.5357 42.206C16.5851 42.4002 16.5902 42.562 16.6873 42.8329C16.7878 43.1055 16.8116 43.1515 16.8184 43.2503C16.8218 43.3525 16.8559 43.3899 16.9002 43.5126C16.9479 43.6335 17.0246 43.6778 17.1455 43.8226C17.2665 43.9674 17.309 44.0356 17.5254 44.0134C17.7383 43.9879 18.0433 43.9129 18.1778 43.901C18.3175 43.884 18.4351 43.8601 18.5816 43.9095C18.7264 43.9521 18.9648 44.0747 19.079 44.1497C19.1011 44.1633 19.1301 44.1514 19.1863 44.0679C19.2459 43.9794 19.3226 43.8226 19.5355 43.5807C19.7519 43.3354 20.0142 43.0032 20.3771 42.7886C20.7382 42.5774 20.854 42.499 21.0772 42.4292C21.3021 42.3644 21.2935 42.3355 21.469 42.3014C21.6428 42.2741 21.6325 42.2247 21.7978 42.2077C21.9647 42.189 22.2356 42.1702 22.44 42.1702C22.6444 42.1702 22.7534 42.1753 22.8897 42.189C23.0226 42.1992 23.348 42.2333 23.457 42.2639C23.5626 42.2929 23.6393 42.2741 23.7551 42.3355C23.8709 42.39 24.3224 42.528 24.5353 42.6557C24.7499 42.7852 24.9271 42.8602 25.1111 43.0271C25.2968 43.1923 25.433 43.2724 25.6272 43.533C25.8232 43.7971 25.8623 43.9828 25.9407 44.1463C26.0173 44.3098 26.0736 44.5074 26.094 44.6284C26.1196 44.7459 26.1247 44.8754 26.1434 45.0645C26.1639 45.2536 26.1349 45.4273 26.0838 45.5909C26.0361 45.7561 26.0088 45.8259 25.9782 45.9333C25.9458 46.0423 25.9441 46.073 25.922 46.1258C25.8385 46.3336 25.7942 46.4443 25.6647 46.5908C25.5404 46.7424 25.1997 47.0422 25.1588 47.1121C25.1213 47.1768 24.6614 47.4017 24.5745 47.4817C24.4876 47.5601 24.1878 47.7117 24.0788 47.7543C23.8624 47.8429 23.7006 47.8906 23.2986 47.94C22.9187 47.9877 22.5422 48.0184 22.2219 47.9877C22.118 47.9775 21.9392 47.9655 21.8335 47.94C21.6785 47.8957 21.5746 47.8889 21.3498 47.802C21.2697 47.773 21.0568 47.6981 20.9954 47.6742C20.8472 47.6027 20.8404 47.5789 20.7637 47.538C20.6837 47.5022 20.4997 47.4153 20.4401 47.3812C20.3839 47.3421 20.2527 47.3063 20.0772 47.1462C19.8728 46.9605 19.7604 46.7424 19.5509 46.4903C19.4963 46.4273 19.1505 45.9707 19.0637 45.9418C18.9785 45.9094 18.9785 45.981 18.8984 45.9316C18.8218 45.8856 18.8303 45.8532 18.7332 45.8856C18.6361 45.9077 18.6054 45.8311 18.5288 45.8532C18.4504 45.8736 18.4248 45.9827 18.3448 45.9895C18.263 45.9997 18.2749 45.9895 18.1898 45.8975C18.1012 45.8123 18.0501 45.8242 17.9615 45.8396C17.8746 45.8651 17.5731 45.8123 17.4538 45.7646C17.3363 45.722 17.0637 45.6403 17.0058 45.5568C16.9445 45.4818 16.8695 45.4699 16.7895 45.4137C16.7111 45.3541 16.5561 45.228 16.4573 45.2144C16.3636 45.2076 16.3142 45.1667 16.2273 45.1411C16.137 45.1139 16.1456 45.1139 16.0502 45.0917C15.9514 45.0696 15.8985 45.0168 15.856 45.0219C15.8066 45.0321 15.6396 45.0611 15.5902 44.9844C15.5391 44.9044 15.5527 44.8652 15.4727 44.8958C15.396 44.9214 15.4233 44.9725 15.3568 44.9844C15.287 44.9946 15.2206 44.9418 15.2001 44.8584C15.1848 44.7664 15.2086 44.7289 15.132 44.671C15.0553 44.6131 14.9872 44.5415 14.9872 44.504C14.9872 44.4649 14.9957 44.4648 14.9258 44.4069C14.8543 44.3473 14.8543 44.3183 14.8986 44.2229C14.9361 44.1241 14.9565 44.0662 14.9361 43.9282C14.9173 43.792 14.9361 43.7613 14.9361 43.5501C14.9361 43.3388 14.8867 43.3457 14.8867 43.177C14.8867 43.0084 14.8986 42.7579 14.8764 42.4598C14.8526 42.1566 14.8526 41.821 14.7879 41.6779C14.7197 41.5314 14.6908 41.4633 14.6635 41.31C14.6311 41.1498 14.6226 40.7103 14.5937 40.4378C14.5664 40.1686 14.546 39.971 14.4983 39.7376C14.4438 39.5025 14.4642 39.356 14.379 39.1636C14.287 38.9694 14.2717 38.8893 14.2717 38.7258C14.2717 38.5622 14.2649 38.5281 14.2019 38.305C14.1456 38.0835 14.1456 37.9319 14.1542 37.6917C14.1678 37.4464 14.2019 37.5503 14.0877 37.2011C13.9685 36.8502 13.9429 36.8417 13.8543 36.5589C13.7692 36.2778 13.6789 35.9099 13.592 35.6918C13.5051 35.4772 13.5409 35.4465 13.483 35.3409C13.4234 35.2353 13.4046 35.1944 13.4234 34.9508C13.4438 34.7106 13.3842 34.7293 13.5051 34.4653C13.6193 34.2047 13.592 34.1314 13.6959 33.9304C13.8032 33.7226 13.8339 33.6834 13.9872 33.4228C14.1439 33.157 14.253 32.9884 14.3688 32.6425C14.488 32.2882 14.5 32.2405 14.534 32.0855C14.5715 31.9271 14.5937 31.8692 14.6516 31.7516C14.7129 31.6358 14.6908 31.6256 14.7214 31.5302C14.7521 31.4348 14.7708 31.4416 14.7316 31.3138C14.6908 31.1912 14.6754 31.1775 14.6908 31.0447C14.7129 30.905 14.7044 30.859 14.6635 30.8419C14.6226 30.8164 14.6039 30.83 14.5477 30.9322C14.488 31.0447 14.3995 31.1912 14.3228 31.3053C14.2461 31.4245 14.2359 31.4348 14.1559 31.6187C14.0758 31.8044 14.0707 31.9509 13.9617 32.1349C13.8543 32.3206 13.8748 32.2627 13.6789 32.7039C13.483 33.14 13.3654 33.5471 13.328 33.697C13.2888 33.8401 13.2888 33.9389 13.2888 34.0582V34.4568C13.2888 34.5726 13.2394 34.7208 13.2223 34.7975C13.1985 34.8758 13.2496 35.0223 13.2564 35.1024C13.27 35.1774 13.2769 35.3068 13.2973 35.4124C13.3211 35.5181 13.3058 35.7685 13.2973 35.949C13.2888 36.1245 13.2888 36.4277 13.2496 36.6287C13.2104 36.8366 13.1661 37.058 13.0929 37.2727C13.0264 37.4873 12.9702 37.6628 12.9379 37.7905C12.9106 37.9183 12.9021 38.2828 12.9583 38.4532C13.0179 38.6167 12.9856 38.6678 13.035 38.8263C13.0844 38.9796 13.1133 39.1056 13.1133 39.2811C13.1133 39.4566 13.1457 39.8654 13.1729 40.0409C13.1985 40.218 13.2309 40.3185 13.2411 40.4327C13.2513 40.5553 13.2513 40.7069 13.299 40.7563C13.3467 40.8023 13.3467 40.8534 13.3467 41.0067C13.3467 41.1601 13.3944 41.3474 13.4251 41.5263C13.4574 41.7001 13.5068 41.7955 13.5119 41.8943C13.5273 41.9948 13.5119 42.1464 13.5647 42.3253C13.6141 42.5007 13.6414 42.5484 13.6618 42.6932C13.6806 42.8414 13.6687 42.9998 13.6976 43.2622C13.7283 43.5245 13.7351 43.7477 13.8049 43.8243C13.8748 43.9061 13.9003 44.2638 13.9804 44.3507C14.0605 44.4393 14.0707 44.5466 14.0894 44.6659C14.1065 44.7834 14.2138 44.9572 14.3109 45.073C14.408 45.1922 14.6925 45.5841 14.8032 45.6692C14.9071 45.7561 14.977 45.8379 15.149 45.8907C15.4148 45.9707 15.4233 46.1121 15.6209 46.0678C15.672 46.0593 15.6703 46.0593 15.7759 46.1632C15.8815 46.2774 15.9718 46.2944 16.0502 46.2944C16.1285 46.2944 16.2904 46.2263 16.3534 46.3217C16.4113 46.4205 16.6753 46.4579 16.7895 46.6164C16.9053 46.7697 16.9598 46.7935 17.0058 46.8378C17.0978 46.9264 17.1114 47.061 17.1404 47.1479C17.1728 47.2382 17.1608 47.3727 17.12 47.4886C17.0876 47.6078 17.0723 47.647 17.0058 47.6862C16.9411 47.7219 16.7793 47.7032 16.6907 47.7032C16.6021 47.7032 16.4471 47.6947 16.3806 47.647C16.3142 47.5976 16.0655 47.4886 16.0076 47.4886C15.9497 47.4886 15.8117 47.5226 15.6992 47.5192C15.6328 47.5141 15.6515 47.5005 15.5817 47.5482C15.5136 47.5993 15.3177 47.48 15.2223 47.48C15.1217 47.48 15.103 47.48 15.0451 47.5686C14.9889 47.6572 14.9804 47.6385 14.856 47.7543C14.7453 47.8719 14.7351 47.8719 14.6175 47.8139C14.5034 47.7543 14.5374 47.8037 14.4489 47.7236C14.3637 47.6487 14.3518 47.63 14.2921 47.5499C14.2393 47.4715 13.9991 47.4324 13.9242 47.4221C13.8458 47.4136 13.7215 47.4017 13.6431 47.354C13.5664 47.3063 13.5085 47.2705 13.4148 47.187C13.3569 47.1411 13.2428 46.986 13.1746 46.9503C13.1082 46.906 12.9532 46.6436 12.8902 46.5465C12.8322 46.4477 12.7232 46.2178 12.696 46.1803C12.6261 46.1002 12.7164 46.1718 12.4694 45.9401C12.4047 45.8702 12.3042 45.8106 12.2582 45.6948C12.2088 45.5806 12.1832 45.4307 12.19 45.3643C12.1968 45.2962 12.1577 45.2587 12.1491 45.2144C12.1134 44.9895 12.1679 44.9231 12.1491 44.8141C12.1304 44.7136 12.1406 44.688 12.0912 44.6028C12.0452 44.516 12.0912 44.4563 12.0725 44.1344C12.052 43.8124 12.0452 43.4615 12.0146 43.2588C11.9822 43.0509 11.9754 42.9164 11.9141 42.7579C11.8561 42.6012 11.8459 42.4752 11.8561 42.3474C11.8664 42.2213 11.8067 42.1225 11.7778 41.9079C11.7471 41.6967 11.742 41.5774 11.7096 41.2674C11.6807 40.9539 11.5853 40.4872 11.4575 39.8909C11.328 39.2964 11.2786 39.0801 11.2616 38.9285C11.2446 38.7717 11.1747 38.6355 11.1526 38.489C11.1356 38.3442 11.1441 38.2556 11.1083 38.1278C11.064 38.0018 11.018 37.9626 10.9891 37.7513C10.9601 37.535 10.9601 37.288 10.9022 37.2113C10.8425 37.1347 10.834 37.0188 10.8051 36.8008C10.7761 36.5879 10.7182 36.3545 10.6773 36.2165C10.6398 36.0836 10.5819 35.9456 10.5325 35.8622C10.4831 35.7872 10.4831 35.7531 10.5427 35.5317C10.6007 35.3187 10.5325 35.1552 10.6518 34.7924C10.7693 34.4295 10.7557 34.3631 10.8664 34.0922C10.972 33.8163 11.0589 33.467 11.0879 33.3819C11.1202 33.2899 11.0827 33.2814 11.1543 32.9849C11.2344 32.6988 11.2974 32.5846 11.3212 32.4143C11.3519 32.2371 11.311 32.1877 11.3774 32.0719C11.4473 31.9526 11.4166 31.9066 11.4592 31.7107C11.4984 31.5148 11.5376 31.3683 11.5648 31.2048C11.5972 31.0395 11.6347 31.0464 11.6568 30.893C11.6756 30.7346 11.6568 30.6852 11.5393 30.6188C11.4183 30.5523 11.1202 30.491 10.9311 30.445C10.7472 30.3922 10.788 30.3564 10.5547 30.3036C10.3196 30.2593 10.2531 30.2645 10.0487 30.2645C9.8443 30.2645 9.70461 30.2372 9.50189 30.2304C9.29407 30.2168 9.26681 30.1725 9.04024 30.1401C8.81709 30.1128 8.70125 30.0924 8.41847 30.0924C8.13568 30.0924 8.00963 30.0396 7.72514 30.0396C7.44066 30.0396 7.32993 29.9561 7.10166 29.8999C6.87509 29.8403 6.82228 29.8675 6.40833 29.6631C6.0029 29.457 5.94157 29.3718 5.79678 29.3037C5.65027 29.2338 5.76441 29.503 5.62302 29.5507C5.49185 29.6069 5.4203 29.6171 5.45607 29.721C5.50207 29.8232 5.5634 29.8573 5.53444 29.9493C5.50207 30.0413 5.47141 30.0413 5.39645 30.118C5.32491 30.1929 5.36579 30.1691 5.33172 30.2747C5.30276 30.3786 5.27039 30.3684 5.22781 30.4552C5.18522 30.537 5.27039 30.6307 5.14433 30.7244C5.02168 30.8164 4.89562 30.8811 4.86326 30.9765C4.82919 31.0719 4.91436 31.0276 4.87348 31.1571C4.82919 31.2814 4.81045 31.3547 4.62136 31.3837C4.43397 31.416 4.41353 31.491 4.47826 31.5608C4.53789 31.6358 4.73038 31.7925 4.3982 31.9169C4.06942 32.0446 3.93144 32.0974 3.82582 32.1485C3.72191 32.2013 3.56348 32.2627 3.65207 32.2916C3.73213 32.3274 3.84797 32.3444 3.87863 32.4194C3.9127 32.4977 3.85989 32.5233 3.75428 32.5608C3.65207 32.5965 3.62481 32.5863 3.48001 32.6306C3.33181 32.6698 3.25856 32.6817 3.17509 32.6306C3.09161 32.5778 2.82076 32.6068 2.50391 32.5471C2.18876 32.4875 1.89235 32.4995 1.56528 32.1758C1.24331 31.8538 1.05593 31.7465 0.962236 31.4944C0.865136 31.244 0.842991 31.1384 0.781665 30.9612C0.718635 30.7857 0.655605 30.6784 0.655605 30.5217C0.655605 30.365 0.645384 30.3445 0.606204 30.1043C0.561913 29.8658 0.543174 29.641 0.561913 29.4008C0.585762 29.1589 0.595983 29.1265 0.616425 28.7926C0.636867 28.4587 0.687972 28.4502 0.752705 28.21C0.815735 27.9664 0.836177 27.7143 0.94009 27.4622C1.0423 27.2135 0.982678 27.2016 1.19221 26.8575C1.40174 26.5082 1.33019 26.481 1.43411 26.3328C1.53802 26.1846 1.65215 26.0278 1.8191 25.7996C1.98434 25.5679 2.14276 25.4418 2.25519 25.2459C2.37785 25.0432 2.52094 24.9069 2.66574 24.7519C2.81394 24.5952 3.10013 24.5952 3.16827 24.43C3.24152 24.2647 3.24152 24.1574 3.35566 24.0194C3.4749 23.8797 3.83264 23.3738 3.92122 23.2103C4.0081 23.0433 4.08476 23.0246 4.17163 22.9002C4.30451 22.7248 4.33006 22.798 4.45953 22.6072C4.58729 22.4096 4.72016 22.2546 5.08471 21.9156C5.45096 21.5749 5.5634 21.4591 5.69286 21.3074C5.82233 21.1473 5.90069 21.0587 6.08637 20.9276C6.26524 20.7998 6.2959 20.7998 6.64001 20.5153C6.99604 20.2291 7.14936 20.1899 7.43554 19.9276C7.72173 19.667 7.77454 19.575 8.1919 19.3672C8.60415 19.1593 8.73872 19.1712 9.02321 19.0026C9.3111 18.8374 9.34858 18.7965 10.0504 18.483C10.7523 18.1713 11.1321 18.0009 11.5734 17.8987C12.0163 17.7948 12.3655 17.6381 12.6653 17.5751C12.9617 17.5086 13.4472 17.3928 13.7572 17.3383C14.0707 17.2889 14.3296 17.2497 14.6533 17.1747C14.9787 17.093 15.3381 17.0282 15.5493 17.0538C15.7572 17.0811 15.7572 17.0316 15.9633 17.0146C16.1762 17.001 16.0944 17.0538 16.3176 17.0402C16.5357 17.0282 16.6379 16.9874 16.8883 17.0282C17.137 17.0691 17.4743 17.0402 17.6514 17.0538C17.8371 17.0691 18.0671 17.1049 18.3294 17.1747C18.5901 17.2361 18.7315 17.2497 18.8609 17.3281C18.9921 17.4081 19.0415 17.3264 19.188 17.4575C19.3328 17.5853 19.3941 17.5359 19.8234 17.7165C20.2527 17.897 20.6411 17.9907 20.8268 18.052C21.0056 18.1185 21.1113 18.1866 21.3821 18.3161C21.6598 18.4456 21.7058 18.5086 21.8898 18.6023C22.0703 18.6926 22.0601 18.6346 22.2662 18.7811C22.4758 18.9259 22.6206 18.9924 22.8642 19.1883C23.1129 19.3774 23.1504 19.4608 23.3054 19.3416C23.4638 19.2275 23.6324 18.9805 23.6972 18.5478C23.7653 18.1185 23.7892 17.7812 23.8266 17.6159C23.8658 17.4405 23.8164 17.5206 23.8454 17.1747C23.8658 16.8204 23.8914 16.3673 23.9084 16.1049C23.9152 15.8443 23.7312 15.26 23.6784 14.8188C23.629 14.3759 23.6955 14.2958 23.5864 14.0113C23.4825 13.7286 23.4825 13.4526 23.4434 13.3214C23.4059 13.1954 23.3173 13.0352 23.29 12.8683C23.2645 12.6979 23.1844 12.2056 23.1589 12.0234C23.135 11.8411 23.1231 11.5821 23.1078 11.4646C23.0975 11.3488 23.0294 11.1767 22.9919 11.0098C22.951 10.836 22.8216 10.5924 22.7671 10.3198C22.7194 10.0422 22.7194 9.957 22.6393 9.54987C22.5609 9.15125 22.5473 9.09673 22.5337 8.84973C22.5218 8.60272 22.4911 8.33868 22.4349 8.12915C22.3872 7.92302 22.3463 7.80718 22.3225 7.36087C22.2935 6.91625 22.256 6.67265 22.2407 6.27403C22.2305 5.8686 22.2407 5.63522 22.2731 5.26897C22.2952 4.90612 22.2731 4.57905 22.3088 4.33545C22.348 4.08503 22.3872 3.94534 22.411 3.7767C22.4349 3.60635 22.5184 3.45985 22.5439 3.26565C22.5661 3.07315 22.658 2.78696 22.6461 2.54166C22.6325 2.29465 22.6955 2.00505 22.7773 1.78701C22.8539 1.56555 22.8948 1.3969 23.0635 1.09709C23.2304 0.800678 23.5507 0.41228 23.7176 0.321994C23.8897 0.231708 24.0191 0.124388 24.1878 0.0613581C24.3598 -0.00337498 24.738 -0.0255205 24.951 0.0375091C25.1537 0.103946 25.2184 0.168679 25.324 0.258964C25.4279 0.34925 25.6068 0.471902 25.6068 0.471902C25.7823 0.483827 25.9407 0.34925 26.2064 0.364582C26.4756 0.37821 26.5931 0.459978 26.6919 0.614996C26.7924 0.778533 26.7618 1.05109 26.847 1.17375C26.9287 1.29129 27.4551 1.43779 27.6766 1.55363C27.8963 1.66946 28.2677 1.75975 28.3818 1.81256C28.4942 1.86537 28.5351 1.88751 28.4942 1.99483L28.5045 1.99143Z" fill="white"/>
</svg>
